<?xml version="1.0" encoding="utf-8"?>
<!-- Svg Vector Icons : http://www.onlinewebfonts.com/icon -->
<!DOCTYPE svg PUBLIC "-//W3C//DTD SVG 1.1//EN" "http://www.w3.org/Graphics/SVG/1.1/DTD/svg11.dtd">
<svg version="1.1" xmlns="http://www.w3.org/2000/svg" xmlns:xlink="http://www.w3.org/1999/xlink" x="0px" y="0px" viewBox="0 0 1000 1000" enable-background="new 0 0 1000 1000" xml:space="preserve">
<metadata> Svg Vector Icons : http://www.onlinewebfonts.com/icon </metadata>
<g><g transform="translate(0.000000,511.000000) scale(0.100000,-0.100000)"><path d="M1525.4,3970.7C472.5,3097.9,271.9,2922.4,265.1,2867.7c-6.8-59.3,86.6-141.3,1230.7-1087.1c681.4-562.9,1260.3-1037,1287.7-1052.9c43.3-22.8,59.2-18.2,98,20.5c25.1,25.1,45.6,52.4,45.6,63.8c0,13.7-396.6,1105.3-467.2,1287.7c-16,36.5,91.2,38.7,2026.1,38.7c2263.1,0,2224.4,2.3,2573.1-148.1c280.3-120.8,419.4-211.9,645-433c232.5-227.9,387.4-453.5,503.7-727c141.3-330.5,170.9-496.8,182.3-1011.9l11.4-462.6l642.7-540.1c353.3-298.6,654.1-551.5,672.3-560.7c25.1-15.9,27.3,155,18.2,1025.6c-11.4,1185.1-27.4,1328.7-198.3,1836.9c-198.3,597.1-469.5,1037-898,1465.4c-487.7,485.4-982.3,763.5-1654.6,929.9c-189.2,45.6-250.7,47.9-2363.4,54.7c-1194.2,4.6-2171.9,11.4-2171.9,16c0,4.6,109.4,303.1,241.6,665.5c200.6,549.3,237,665.5,216.5,708.8c-16,31.9-43.3,52.4-75.2,52.4C2797.1,5007.7,2350.4,4654.5,1525.4,3970.7z"/><path d="M260.5,1012.5c0-708.8,9.1-1011.9,34.2-1205.6c207.4-1581.7,1303.6-2810.1,2785-3120c243.9-50.1,266.6-50.1,2356.6-59.3l2110.4-6.8l-237-640.4c-127.6-353.3-234.7-658.6-234.7-679.2c0-50.1,45.6-91.2,102.5-91.2c59.3,2.3,2522.9,2035.2,2550.3,2108.1c15.9,38.7,11.4,66.1-9.1,91.2c-79.8,95.7-2509.3,2085.4-2548,2085.4c-52.4,0-95.7-43.3-95.7-93.4c0-22.8,102.5-319.1,227.9-660.9c125.4-341.9,227.9-635.9,227.9-651.8c0-27.4-325.9-29.6-2067.1-25.1c-2051.2,9.1-2071.7,9.1-2251.7,59.2c-658.6,180-1201.1,674.6-1451.8,1319.6c-116.2,300.8-155,537.8-155,986.8c0,218.8-9.1,410.2-18.2,421.6C1564.1,884.9,290.1,1956,274.2,1956C267.3,1956,260.5,1529.9,260.5,1012.5z"/></g></g>
</svg>