<?xml version="1.0" encoding="utf-8"?>
<!-- Svg Vector Icons : http://www.onlinewebfonts.com/icon -->
<!DOCTYPE svg PUBLIC "-//W3C//DTD SVG 1.1//EN" "http://www.w3.org/Graphics/SVG/1.1/DTD/svg11.dtd">
<svg version="1.1" xmlns="http://www.w3.org/2000/svg" xmlns:xlink="http://www.w3.org/1999/xlink" x="0px" y="0px" viewBox="0 0 1000 1000" enable-background="new 0 0 1000 1000" xml:space="preserve">
<metadata> Svg Vector Icons : http://www.onlinewebfonts.com/icon </metadata>
<g><g transform="translate(0.000000,24.000000) scale(0.100000,-0.100000)"><path d="M6225-1260c629.9-700,595.1-700-2729.9-700H100v-1995.1c0-1925,0-1959.9,700-1329.9c385,350,700,910,700,1295.1c0,559.9,315,629.9,2695.1,629.9c2625,0,2659.9,0,2029.9-700s-595.1-700,420.1-700c700,0,1364.8,350,2029.9,1050l1015.1,1050L8675-1610C8009.9-910,7345.1-560,6645.1-560C5629.9-560,5595.1-560,6225-1260z"/><path d="M9095.1-4339.9c-350-350-595.1-910.2-595.1-1225c0-490.1-420.1-595.1-2695.1-595.1c-2625,0-2659.9,0-2029.9,700s595.1,700-420.1,700c-700,0-1365-350-2029.9-1050L310-6860l1015-1050c665-700,1329.9-1050,2029.9-1050c1015.1,0,1050,0,420.1,700s-595.1,700,2729.9,700H9900v1925c0,1050-70.1,1925-104.9,1925C9725-3710,9409.9-3989.9,9095.1-4339.9z"/></g></g>
</svg>