<?xml version="1.0" encoding="utf-8"?>
<!-- Svg Vector Icons : http://www.onlinewebfonts.com/icon -->
<!DOCTYPE svg PUBLIC "-//W3C//DTD SVG 1.1//EN" "http://www.w3.org/Graphics/SVG/1.1/DTD/svg11.dtd">
<svg version="1.1" xmlns="http://www.w3.org/2000/svg" xmlns:xlink="http://www.w3.org/1999/xlink" x="0px" y="0px" viewBox="0 0 1000 1000" enable-background="new 0 0 1000 1000" xml:space="preserve">
<metadata> Svg Vector Icons : http://www.onlinewebfonts.com/icon </metadata>
<g><g transform="translate(0.000000,59.000000) scale(0.100000,-0.100000)"><path d="M8062.5-596.9c0-408.3-102.1-449.2-1000.5-449.2H6061.7l-1470-2143.7L3142.1-5333.7H1610.8H100v-918.7v-918.8h2102.9h2082.5l1408.8,2143.7C6796.6-3332.8,7205-2883.6,7572.4-2883.6c306.2,0,490.1-143,531-428.8c61.2-367.5,163.3-306.3,939.1,469.6l857.5,898.3l-918.8,898.3C8164.6-249.9,8062.5-188.6,8062.5-596.9z"/><path d="M100-2577.4v-918.8h1715c1163.8,0,1755.9-81.7,1796.7-245c61.2-142.9,367.5,183.8,734.9,694.2c857.5,1265.8,673.8,1388.3-2041.7,1388.3H100V-2577.4z"/><path d="M5734.9-5374.6l-612.4-837l428.8-734.9c387.8-673.9,510.4-735.1,1470-796.3c918.7-61.2,1041.2-122.4,1041.2-510.4c0-367.5,122.4-306.3,918.8,469.6l918.8,898.4l-857.5,898.2c-775.8,776-877.9,837.2-939.1,469.7c-102.1-694.3-898.4-531-1368,285.7l-408.3,694.3L5734.9-5374.6z"/></g></g>
</svg>