<?xml version="1.0" encoding="utf-8"?>
<!-- Svg Vector Icons : http://www.onlinewebfonts.com/icon -->
<!DOCTYPE svg PUBLIC "-//W3C//DTD SVG 1.1//EN" "http://www.w3.org/Graphics/SVG/1.1/DTD/svg11.dtd">
<svg version="1.1" xmlns="http://www.w3.org/2000/svg" xmlns:xlink="http://www.w3.org/1999/xlink" x="0px" y="0px" viewBox="0 0 1000 1000" enable-background="new 0 0 1000 1000" xml:space="preserve">
<metadata> Svg Vector Icons : http://www.onlinewebfonts.com/icon </metadata>
<g><path d="M126.4,383.6C65.1,383.6,10,438.8,10,500c0,61.2,55.1,116.4,116.4,116.4c67.4,0,116.4-55.1,116.4-116.4C242.8,438.8,193.8,383.6,126.4,383.6z M500,383.6c-67.4,0-116.4,55.1-116.4,116.4c0,61.2,55.1,116.4,116.4,116.4S616.4,561.3,616.4,500C616.4,438.8,567.4,383.6,500,383.6z M873.6,383.6c-67.4,0-116.4,55.1-116.4,116.4c0,61.2,55.1,116.4,116.4,116.4S990,561.3,990,500C990,438.8,934.9,383.6,873.6,383.6z"/></g>
</svg>