<?xml version="1.0" encoding="utf-8"?>
<!-- Svg Vector Icons : http://www.onlinewebfonts.com/icon -->
<!DOCTYPE svg PUBLIC "-//W3C//DTD SVG 1.1//EN" "http://www.w3.org/Graphics/SVG/1.1/DTD/svg11.dtd">
<svg version="1.1" xmlns="http://www.w3.org/2000/svg" xmlns:xlink="http://www.w3.org/1999/xlink" x="0px" y="0px" viewBox="0 0 1000 1000" enable-background="new 0 0 1000 1000" xml:space="preserve">
<metadata> Svg Vector Icons : http://www.onlinewebfonts.com/icon </metadata>
<g><path d="M990,629.5L860.5,500L990,370.5l-40-39.9L820.6,460.1L691.1,330.6l-39.9,39.9L780.6,500L651.2,629.5l39.9,40l129.5-129.5l129.5,129.5L990,629.5z"/><path d="M544.6,68.6c-20.6-8.7-45.5-4.8-62.1,9.5L231.8,294.9H89.6c-43.9,0-79.6,34.1-79.6,76V629c0,41.9,35.7,76,79.6,76h142.2l250.7,216.8c10.6,9.2,24.3,14.2,38.7,14.2c8.1,0,16-1.6,23.4-4.7c20.9-8.8,34.3-28.6,34.3-50.3V118.9C578.9,97.2,565.5,77.4,544.6,68.6z M521.7,882c-0.2,0.1-0.3,0.1-0.5,0.1l-267.7-231H89.6c-12.7,0-23.1-9.9-23.1-22.1V370.9c0-12.2,10.4-22.1,23.1-22.1h163.9L520.5,118l2,0.9L521.7,882z"/></g>
</svg>