<?xml version="1.0" encoding="utf-8"?>
<!-- Svg Vector Icons : http://www.onlinewebfonts.com/icon -->
<!DOCTYPE svg PUBLIC "-//W3C//DTD SVG 1.1//EN" "http://www.w3.org/Graphics/SVG/1.1/DTD/svg11.dtd">
<svg version="1.1" xmlns="http://www.w3.org/2000/svg" xmlns:xlink="http://www.w3.org/1999/xlink" x="0px" y="0px" viewBox="0 0 1000 1000" enable-background="new 0 0 1000 1000" xml:space="preserve">
<metadata> Svg Vector Icons : http://www.onlinewebfonts.com/icon </metadata>
<g><path d="M895.6,500l80-80c19.3-19.3,19.3-50.6,0-69.8c-19.3-19.3-50.6-19.3-69.8,0l-70.6,70.6l11.4,30.2L745.7,350.2c-19.3-19.3-50.6-19.3-69.8,0c-19.3,19.3-19.3,50.6,0,69.8l80,80l-80,80c-19.3,19.3-19.3,50.6,0,69.8c19.3,19.3,50.6,19.3,69.8,0L846.5,549l-11.4,30.2l70.6,70.6c19.3,19.3,50.6,19.3,69.8,0c19.3-19.3,19.3-50.6,0-69.8L895.6,500z"/><path d="M499,136.1l-182,113.1l0,0.1l-106.7,66.2l45.2-39.7H129.6C63.8,275.8,10,329.6,10,395.3v209.2c0,65.8,53.8,119.6,119.6,119.6h110.8l-80.8-71.1l114.4,71.1h0L499,863.8c51,26.7,84.6,15.6,84.6-50.2V186.7C583.5,120.9,550,109.4,499,136.1z"/></g>
</svg>