<?xml version="1.0" encoding="utf-8"?>
<!-- Svg Vector Icons : http://www.onlinewebfonts.com/icon -->
<!DOCTYPE svg PUBLIC "-//W3C//DTD SVG 1.1//EN" "http://www.w3.org/Graphics/SVG/1.1/DTD/svg11.dtd">
<svg version="1.1" xmlns="http://www.w3.org/2000/svg" xmlns:xlink="http://www.w3.org/1999/xlink" x="0px" y="0px" viewBox="0 0 1000 1000" enable-background="new 0 0 1000 1000" xml:space="preserve">
<metadata> Svg Vector Icons : http://www.onlinewebfonts.com/icon </metadata>
<g><path d="M500,10C229.4,10,10,229.4,10,500c0,270.6,219.4,490,490,490c270.6,0,490-219.4,490-490C990,229.4,770.6,10,500,10z M356.9,464.6c31.6-42.9,74.5-67.8,101.6-74.5c0,0,42.3-20.3,73.1-22.6c30.8-2.3,66.9-6.8,66.9-6.8L548.7,302v-20.3l27.1-22.6l155.8,133.2v13.5l-22.6,22.6L575.8,541.3c0,0-49.7-9-24.8-40.6c24.8-31.6,45.1-51.9,45.1-51.9s-70-13.5-110.6,2.2c-40.6,15.8-97.1,47.4-108.4,90.3c-11.3,42.9-11.3,42.9-11.3,42.9l-15.8,20.4L332,593.3v-22.6C332,570.7,325.2,507.5,356.9,464.6z M736.5,697.2H326.6v-44.1h364.1v-91.4h45.8V697.2z"/></g>
</svg>