<?xml version="1.0" encoding="utf-8"?>
<!-- Svg Vector Icons : http://www.onlinewebfonts.com/icon -->
<!DOCTYPE svg PUBLIC "-//W3C//DTD SVG 1.1//EN" "http://www.w3.org/Graphics/SVG/1.1/DTD/svg11.dtd">
<svg version="1.1" xmlns="http://www.w3.org/2000/svg" xmlns:xlink="http://www.w3.org/1999/xlink" x="0px" y="0px" viewBox="0 0 1000 1000" enable-background="new 0 0 1000 1000" xml:space="preserve">
<metadata> Svg Vector Icons : http://www.onlinewebfonts.com/icon </metadata>
<g><g id="share1_1_"><g><path d="M894,711.5c-16.9-13.1-38.8-36.4-59.3-41.5c-3.8-1-6.3-2.3-8.9-3c-3.8-1-6.3-2.3-8.9-3c-14.7-3.7-22.8-1.5-38.5-3c-6.6-0.6-13.9-3.2-20.7-3c-8.7,0.3-16.9,5.6-26.7,3c-12.3,7.4-27.5,11.9-38.5,20.7c-6.7,3.2-14.9,4.9-20.7,8.9c-9.5,1.4-10.5,11.3-20.8,11.8c-21.4-18.1-47.6-31.4-68.1-50.3c-13.9-5.9-25.7-13.8-35.6-23.7c-13.8-5.9-25.7-13.8-35.5-23.7c-26.8-12.7-47.1-32-74.1-44.5c-9-10.8-24.7-14.8-35.5-23.7c-11.2-8.5-27.9-11.6-35.5-23.7c3-7.9,6.1-15.6,5.9-26.7c6.1-13.7,24.2-15.3,32.6-26.6c15-5.8,23.8-17.7,38.5-23.7c8.6-11.1,24.4-15.2,32.6-26.7c14.8-6,23.5-17.9,38.5-23.7c21.3-19.2,46.6-34.4,71.1-50.4c11.1-9.6,24.4-17,35.5-26.7c17-3.8,28.5-13,35.6-26.7c9.1,14.5,25.1,22.4,38.5,32.6c20.5,5.2,41.2,10.2,65.2,11.8c25-3.4,46.9-5.8,65.2-14.8c18.4-9,31.6-22.7,44.4-35.6c12.9-12.8,26.6-26.6,35.5-44.4c9.5-18.9,12.8-40.2,14.8-65.2c-1.3-14.5-4-27.6-5.9-41.5C873,55.7,806.1-2.6,689.6,12.4c-2.5,4.4-7.4,6.4-14.8,5.9c-33.4,30.8-53.5,74.9-59.3,133.3c-21.5,15-44.6,28.4-65.2,44.5c-24.7,12.8-44.1,30.9-71.1,41.5c-8.3,10.5-23.9,13.6-32.6,23.7c-14.5,4.3-22.1,15.5-35.5,20.7c-9.5,9.3-23.1,14.4-32.6,23.7c-13.5,5.3-21,16.5-35.6,20.7c-12.2-12.5-29.7-19.7-44.5-29.6c-31.3-6.2-64.1-10.9-103.7-8.9c-0.6,4.4-7.2,2.7-11.9,3c-2.5,4.4-7.4,6.3-14.8,5.9c-9.6,7.2-18.5,15.1-29.6,20.7c-33.2,34.9-58.6,77.7-68.1,136.3c-0.7,34.2,2.2,65,5.9,94.8c21.1,64.8,68.8,103,157,100.7c26.1-3.5,47.8-11.5,65.2-23.7c-2.7,18.5,5.4,26.2,14.8,32.6c15.8,6.5,22.1-2.6,35.6-5.9c10.5,7.3,17.6,18,29.6,23.7c8.8,9,17.1,18.4,29.6,23.7c5.5,12.3,20.8,14.7,26.7,26.6c14.2,3.6,17.9,17.6,32.6,20.7c7.2,10.6,19.6,16,29.6,23.7c10.2,7.6,19.4,16.1,32.6,20.7c8.2,9.6,21.3,14.2,32.6,20.7c11.4,7.3,26.5,11,38.5,17.8v74.1c6.5,10.3,10,23.6,17.8,32.6c6.9,10.9,16.4,19.1,26.7,26.7c17.6,17,46.7,22.5,77,26.7h53.3c82.1-15.6,139.1-56.4,154-139.2v-59.3C925,757.6,908.6,735.5,894,711.5z M775.5,261.2c1.8-7.1,4.3-13.5,3-23.7c10.4,0.4,8.4,13.3,11.8,20.7C783.2,257.1,783.9,263.7,775.5,261.2z M748.9,95.3c5.8-6.2,2.2-19.7,0-26.7c54.1,1.2,76.4,34.2,106.6,59.3c2.9,9.9,9.4,16.3,11.9,26.7c2.1,37.7-18.1,53-32.6,74c-13.5,6.3-19.9,19.6-35.6,23.7c-7.2-17.5-12.6-36.8-20.7-53.3c-9-0.1-11.5,6.3-17.8,8.9c0.3,3.6-4.3,1.8,0,0c4.8-14.8,3.2-32.7-5.9-41.5c-9-2.1-8.7,5.1-17.8,3c5.8-20.8,14.7-38.6,26.6-53.3C762.4,105.5,756.2,99.8,748.9,95.3z M742.9,246.4c5.8,1.4,5.3,20.8-5.9,14.8C738.3,255.6,743.4,253.8,742.9,246.4z M372.6,370.8c9.4,0.5,9.9-7.9,20.7-5.9c6.2,1.7,8.4,7.4,17.8,5.9c17-4.7,25.8-17.6,26.7-38.5c30.4-16.9,55.4-39.4,88.9-53.3c10.6-13.1,31.3-16,41.5-29.6c15.7-7,30.2-15.2,41.5-26.7h8.9c0.8,14,12.1,17.5,14.8,29.6h-23.7c-23.2,10.3-41.6,25.5-62.2,38.5c-17.8,14.8-39.8,25.3-56.3,41.4c-11.7,5.1-21.3,12.3-29.6,20.8c-13.3,2.5-16.3,15.3-29.6,17.8c-5.8,11-20.2,13.4-26.7,23.7c-12,3.8-16.3,15.3-29.6,17.8C377.9,395.2,371.3,387,372.6,370.8z M165.3,590.1c1.5-4.4,4.4-7.5,5.9-11.8c6.9,2,7.9,9.8,14.8,11.8C182.5,598,170.6,590.1,165.3,590.1z M209.7,593c4.1-7.8,12.5-11.2,14.8-20.7c4.9,3,3.2,12.6,6,17.8C226.6,594.1,217.6,593,209.7,593z M319.3,447.9c0.5,10.4-10,9.8-11.9,17.8c-0.9,11.8-0.1,21.9,5.9,26.7c-9.2,34.3-23.2,63.7-47.4,82.9c-13.2-23.4-9.3-63.7-29.6-80c-11.6,5.1-26.6,7-32.6,17.8c-4.9-2-1-5.5,0-8.9c0.9-3,1.5-7.3,3-11.8c0.5-1.6,5.7-7.7,5.9-8.9c0.8-3.8-0.6-8,0-11.8c-3.3-9.6-9.4-16.3-23.7-14.8c1-10.8,11.8-12,8.9-26.6c-2.8-11.6-14.9-2.5-23.7-3c8-16.7,29.6-19.8,35.5-38.5c0.2-18-12.6-23-26.7-26.7c6.5-7.3,17.2-10.4,23.7-17.8c37.7-2.2,68.3,2.7,91.8,14.8c2.7,5.2,6.6,9.2,11.9,11.8c1.3,7.6,4.2,13.6,8.9,17.8L319.3,447.9L319.3,447.9z M411.2,649.3c-17.9-6.7-1.5-28-3-44.4c6.2,3.7,11.5,8.2,17.8,11.8C423.1,629.6,415.7,638.1,411.2,649.3z M440.8,670.1c4.2-9.6,7.5-20.2,8.9-32.6c11,7.8,5.8,31.8,11.8,44.4C451.8,680.8,448.4,673.2,440.8,670.1z M618.5,761.9c-6,6.3-11.8-0.8-17.8-3c-4.6-4.3-13.9-3.9-17.8-8.9c-12.4,0.7-14-4.8-23.7,0c-11.6-12.1-29.6-17.8-41.5-29.6c-18.1-5.6-26-21.3-44.5-26.7c5.6-16.1-1.2-30.5-3-47.4c2.5-0.6,2.8,1.1,3,3c27.7,16.7,54.2,34.7,80,53.3c12.6,9.1,26.8,16.6,38.5,26.6C602.4,738.2,628.5,741.6,618.5,761.9z M665.9,889.3c-10.3-1.5-4.4-19.3-6-29.6C671.6,866.8,672.8,876.8,665.9,889.3z M867.4,865.6c-2,3.5-3,3.5-5.9,5.9c-1,0.8,0.8,4.9,0,5.9c-5.3,7-15.3,14.8-23.7,20.7c-9.4,6.7-20.6,14-32.6,14.8c-6.3-10.5-9.8-23.8-17.8-32.6c4-8.7,3.7-18.3-3-23.7c-31.7-0.4-46.7,43.8-29.6,65.2c11.3,5.1,18.5-8.8,20.7-2.9c0.4,12.3-20.6,3.1-29.6,5.9c-11.8-1.1-28.4,2.7-35.5-3c-1-27.7,12.6-40.7,17.8-62.2c5.6-8.2,8.1-19.6,14.8-26.7c5.5-8.3,13.2-14.5,14.8-26.7c0.2-10.1-11-8.8-20.8-8.9c4.6-19.1,20.1-27.3,26.6-44.4c-3.3-13.7-24-18.3-38.5-11.8c0.3,3.6-4.3,1.8,0,0c10.6-11.3,24-18.8,41.4-20.7c21.3-2.4,56.8,2.3,62.2,8.9c0.7,0.9,4.9-0.5,5.9,0c3.5,1.7,6.5,7.9,11.8,5.9c12.7,13,23.1,28.2,32.6,44.4C881.7,816.7,877.7,847.9,867.4,865.6z"/></g></g><g></g><g></g><g></g><g></g><g></g><g></g><g></g><g></g><g></g><g></g><g></g><g></g><g></g><g></g><g></g></g>
</svg>