<?xml version="1.0" encoding="utf-8"?>
<!-- Svg Vector Icons : http://www.onlinewebfonts.com/icon -->
<!DOCTYPE svg PUBLIC "-//W3C//DTD SVG 1.1//EN" "http://www.w3.org/Graphics/SVG/1.1/DTD/svg11.dtd">
<svg version="1.1" xmlns="http://www.w3.org/2000/svg" xmlns:xlink="http://www.w3.org/1999/xlink" x="0px" y="0px" viewBox="0 0 1000 1000" enable-background="new 0 0 1000 1000" xml:space="preserve">
<metadata> Svg Vector Icons : http://www.onlinewebfonts.com/icon </metadata>
<g><path d="M624,509.4c-18.9,0-33.3-13.6-33.6-31.7l-1.8-137.1c-0.1-8.5,3-16.5,8.9-22.4c10.8-11,30.4-13.3,44.9-5.2L755,380.2c11.4,6.4,18.3,16.5,18.4,27.6c0.1,10.4-5.8,19.9-16.2,26.1l-113,69.9C637.9,507.5,631,509.4,624,509.4z M623.1,338.1c-2,0-3.5,0.6-4.1,1.2l1.6,137.9c0,1.9,2.4,4,8,0.7l113-69.9c0.2-0.1,0.3-0.2,0.5-0.3c-0.5-0.4-1.3-0.9-2.2-1.4L627.3,339C625.9,338.3,624.2,338.1,623.1,338.1z"/><path d="M500,990C229.8,990,10,770.2,10,500C10,229.8,229.8,10,500,10c270.2,0,490,219.8,490,490C990,770.2,770.2,990,500,990z M500,70.3C263.1,70.3,70.3,263.1,70.3,500c0,236.9,192.7,429.6,429.7,429.6c236.9,0,429.7-192.7,429.7-429.6C929.7,263.1,736.9,70.3,500,70.3z"/><path d="M864.3,515.1c-8.3,0-15.1-6.7-15.1-15.1c0-157-105.6-295.5-256.9-336.9c-8-2.2-12.8-10.5-10.6-18.5c2.2-8,10.6-12.7,18.5-10.6C764.6,179,879.4,329.4,879.4,500C879.4,508.3,872.6,515.1,864.3,515.1z"/><path d="M520.3,151.4c-0.3,0-0.6,0-0.8,0c-6.5-0.4-13-0.5-19.5-0.5c-8.3,0-15.1-6.7-15.1-15.1s6.7-15.1,15.1-15.1c7.1,0,14.1,0.2,21.2,0.6c8.3,0.4,14.7,7.6,14.2,15.9C535,145.1,528.3,151.4,520.3,151.4z"/><path d="M258,682.8c-28,0-46.6-6.6-47.1-6.8c-7.8-2.9-11.8-11.6-8.9-19.4c2.9-7.8,11.6-11.7,19.4-8.9c4.9,1.8,121.9,41.9,202.2-123c71.6-147,178-131.6,182.5-130.9c8.2,1.3,13.8,9.1,12.5,17.3c-1.3,8.2-9,13.7-17.2,12.5c-3.8-0.5-89.4-11.4-150.6,114.3C390.9,660.8,308.9,682.8,258,682.8z"/><path d="M623.1,738.1L623.1,738.1c-9.9,0-19.2-3.7-25.6-10.2c-5.8-5.9-9-13.9-8.9-22.4l1.8-137.1c0.3-18.1,14.7-31.7,33.6-31.7c7,0,13.9,1.9,20,5.5l113.5,70.2c10.2,6.1,16.1,15.6,16,25.9c-0.1,11-7,21.2-18.8,27.8l-111.9,66.9C636.5,736.4,629.9,738.1,623.1,738.1z M624,566.8c-2.2,0-3.4,0.7-3.4,2l-1.8,137.1c1.2,2.3,4,3.6,8.9,0.9l111.9-66.9c1.1-0.6,1.9-1.2,2.5-1.7c-0.1,0-0.2-0.1-0.2-0.1L628.3,568C626.7,567,625.1,566.8,624,566.8z"/><path d="M585.9,653.7c-39.5,0-124.6-14.7-163-134.4C402.6,456.2,371.4,415,330.3,397c-53.9-23.6-107.2,0.6-107.7,0.9c-7.6,3.5-16.5,0.2-20-7.3c-3.5-7.6-0.2-16.5,7.3-20c2.7-1.2,66.3-30.1,132.6-1.1c49.4,21.6,86.2,69,109.2,140.8c42.5,132.4,144.8,113.4,149.2,112.5c8.2-1.6,16.1,3.6,17.8,11.8c1.7,8.2-3.6,16.1-11.8,17.8C606.4,652.3,598.5,653.7,585.9,653.7z"/></g>
</svg>