<?xml version="1.0" encoding="utf-8"?>
<!-- Svg Vector Icons : http://www.onlinewebfonts.com/icon -->
<!DOCTYPE svg PUBLIC "-//W3C//DTD SVG 1.1//EN" "http://www.w3.org/Graphics/SVG/1.1/DTD/svg11.dtd">
<svg version="1.1" xmlns="http://www.w3.org/2000/svg" xmlns:xlink="http://www.w3.org/1999/xlink" x="0px" y="0px" viewBox="0 0 1000 1000" enable-background="new 0 0 1000 1000" xml:space="preserve">
<metadata> Svg Vector Icons : http://www.onlinewebfonts.com/icon </metadata>
<g><path d="M349.4,191c-8.5,8.5-50.9,56.6-96.2,107.5c-8.5-2.8-19.8-5.7-28.3-5.7H97.7c-48.1,0-87.7,39.6-87.7,87.7v220.6c0,48.1,39.6,87.7,87.7,87.7h130.1c11.3,0,19.8-2.8,31.1-5.7c45.2,53.7,87.7,101.8,93.3,107.5c17,14.1,87.7,31.1,104.6-33.9c2.8-8.5,33.9-149.9,33.9-285.6c0-124.4-31.1-237.5-36.8-248.9C428.5,154.3,366.3,179.7,349.4,191z M592.6,326.8c-17,17-17,45.2-5.7,67.9c28.3,65,28.3,141.4,0,206.4c-8.5,22.6-8.5,53.7,5.7,67.9c17,17,45.2,5.7,62.2-28.3c39.6-90.5,39.6-195.1,0-285.6C637.8,321.1,606.7,309.8,592.6,326.8z M711.3,261.7c-22.6,22.6,0,62.2,14.1,96.1c39.6,90.5,45.2,195.1,5.7,285.6c-14.1,31.1-42.4,73.5-19.8,96.1c22.6,22.6,62.2,5.7,82-39.6c53.7-124.4,53.7-271.5,0-393.1C773.5,253.3,734,239.1,711.3,261.7z M948.9,253.3c-19.8-56.6-56.6-76.4-76.4-48.1c-22.6,28.3,0,76.4,14.1,115.9c39.6,107.5,45.2,265.8,5.7,373.3c-14.1,39.6-42.4,87.7-19.8,115.9c22.6,28.3,62.2,8.5,82-48.1C1005.4,609.6,999.8,403.1,948.9,253.3z"/></g>
</svg>