<?xml version="1.0" encoding="utf-8"?>
<!-- Svg Vector Icons : http://www.onlinewebfonts.com/icon -->
<!DOCTYPE svg PUBLIC "-//W3C//DTD SVG 1.1//EN" "http://www.w3.org/Graphics/SVG/1.1/DTD/svg11.dtd">
<svg version="1.1" xmlns="http://www.w3.org/2000/svg" xmlns:xlink="http://www.w3.org/1999/xlink" x="0px" y="0px" viewBox="0 0 1000 1000" enable-background="new 0 0 1000 1000" xml:space="preserve">
<metadata> Svg Vector Icons : http://www.onlinewebfonts.com/icon </metadata>
<g><path d="M717.8,10c45.1,0,83.6,15.9,115.5,47.9c31.9,31.9,47.8,70.4,47.8,115.5v653.3c0,45.1-15.9,83.6-47.8,115.5C801.4,974,762.9,990,717.8,990c-45.1,0-83.6-16-115.5-47.9c-31.9-31.9-47.8-70.4-47.8-115.5V173.3c0-45.1,15.9-83.6,47.8-115.5C634.2,25.9,672.7,10,717.8,10z M282.2,10c45.1,0,83.6,15.9,115.5,47.9c31.9,31.9,47.8,70.4,47.8,115.5v653.3c0,45.1-15.9,83.6-47.8,115.5C365.8,974,327.3,990,282.2,990c-45.1,0-83.6-16-115.5-47.9c-31.9-31.9-47.9-70.4-47.9-115.5V173.3c0-45.1,16-83.6,47.9-115.5C198.6,25.9,237.1,10,282.2,10z M282.2,118.9c-15,0-27.9,5.3-38.5,15.9c-10.6,10.6-15.9,23.5-15.9,38.5v653.3c0,15,5.3,27.9,15.9,38.5c10.6,10.6,23.5,15.9,38.5,15.9c15,0,27.9-5.3,38.5-15.9c10.6-10.6,15.9-23.5,15.9-38.5V173.3c0-15-5.3-27.9-15.9-38.5C310.1,124.2,297.3,118.9,282.2,118.9z M717.8,118.9c-15,0-27.9,5.3-38.5,15.9c-10.6,10.6-15.9,23.5-15.9,38.5v653.3c0,15,5.3,27.9,15.9,38.5c10.6,10.6,23.5,15.9,38.5,15.9c15,0,27.9-5.3,38.5-15.9c10.6-10.6,15.9-23.5,15.9-38.5V173.3c0-15-5.3-27.9-15.9-38.5C745.6,124.2,732.8,118.9,717.8,118.9z"/></g>
</svg>